<?xml version="1.0" encoding="UTF-8" standalone="no"?>
<svg xmlns="http://www.w3.org/2000/svg" viewBox="0 0 128 128" width="128" height="128">
  <circle cx="64" cy="64" r="64" fill="#366eea"/>
  <g transform="translate(24, 20)" fill="#ffffff">
    <!-- Radio Tower -->
    <path d="M40,0 L45,0 L45,8 L40,8 Z" />
    <path d="M35,8 L50,8 L50,12 L35,12 Z" />
    <path d="M40,12 L45,12 L45,70 L40,70 Z" />
    <path d="M30,70 L55,70 L55,75 L30,75 Z" />
    
    <!-- Radio waves -->
    <path d="M10,20 Q20,30 10,40" fill="none" stroke="#ffffff" stroke-width="3" stroke-linecap="round"/>
    <path d="M0,10 Q20,40 0,70" fill="none" stroke="#ffffff" stroke-width="3" stroke-linecap="round"/>
    
    <path d="M70,20 Q60,30 70,40" fill="none" stroke="#ffffff" stroke-width="3" stroke-linecap="round"/>
    <path d="M80,10 Q60,40 80,70" fill="none" stroke="#ffffff" stroke-width="3" stroke-linecap="round"/>
    
    <!-- News lines -->
    <rect x="25" y="25" width="30" height="5" rx="2" />
    <rect x="25" y="35" width="40" height="5" rx="2" />
    <rect x="25" y="45" width="35" height="5" rx="2" />
    <rect x="25" y="55" width="30" height="5" rx="2" />
  </g>
</svg>
